<svg width="1103" height="212" viewBox="0 0 1103 212" fill="none" xmlns="http://www.w3.org/2000/svg">
<line x1="1057.87" y1="36.6118" x2="1059.68" y2="43.3733" stroke="#303030" stroke-width="3"/>
<line x1="1065.12" y1="63.6577" x2="1066.93" y2="70.4192" stroke="#303030" stroke-width="3"/>
<line x1="1068.48" y1="76.2148" x2="1070.29" y2="82.9763" stroke="#303030" stroke-width="3"/>
<line x1="1071.87" y1="89.6118" x2="1073.68" y2="96.3733" stroke="#303030" stroke-width="3"/>
<line x1="1075.75" y1="104.101" x2="1077.56" y2="110.862" stroke="#303030" stroke-width="3"/>
<line x1="1.5" y1="65" x2="1.5" y2="72" stroke="#303030" stroke-width="3"/>
<line x1="80" y1="57.5" x2="87" y2="57.5" stroke="#303030" stroke-width="3"/>
<line x1="93" y1="57.5" x2="100" y2="57.5" stroke="#303030" stroke-width="3"/>
<line x1="106" y1="57.5" x2="113" y2="57.5" stroke="#303030" stroke-width="3"/>
<line x1="54" y1="57.5" x2="61" y2="57.5" stroke="#303030" stroke-width="3"/>
<line x1="1061.75" y1="51.1005" x2="1063.56" y2="57.862" stroke="#303030" stroke-width="3"/>
<line x1="1079.12" y1="116.658" x2="1080.93" y2="123.419" stroke="#303030" stroke-width="3"/>
<line x1="1082.48" y1="129.215" x2="1084.29" y2="135.976" stroke="#303030" stroke-width="3"/>
<line x1="1085.87" y1="141.612" x2="1087.68" y2="148.373" stroke="#303030" stroke-width="3"/>
<line x1="1089.24" y1="154.169" x2="1091.05" y2="160.93" stroke="#303030" stroke-width="3"/>
<line x1="1092.6" y1="166.726" x2="1094.41" y2="173.488" stroke="#303030" stroke-width="3"/>
<line x1="1095.87" y1="179.612" x2="1097.68" y2="186.373" stroke="#303030" stroke-width="3"/>
<line x1="1099.24" y1="192.169" x2="1101.05" y2="198.93" stroke="#303030" stroke-width="3"/>
<line x1="1102.6" y1="204.726" x2="1104.41" y2="211.488" stroke="#303030" stroke-width="3"/>
<line x1="67" y1="57.5" x2="74" y2="57.5" stroke="#303030" stroke-width="3"/>
<line x1="26" y1="57.5" x2="33" y2="57.5" stroke="#303030" stroke-width="3"/>
<line x1="39" y1="57.5" x2="46" y2="57.5" stroke="#303030" stroke-width="3"/>
<line y1="57.5" x2="7" y2="57.5" stroke="#303030" stroke-width="3"/>
<line x1="1.5" y1="78" x2="1.5" y2="85" stroke="#303030" stroke-width="3"/>
<line x1="1.5" y1="91" x2="1.5" y2="98" stroke="#303030" stroke-width="3"/>
<line x1="1.5" y1="104" x2="1.5" y2="111" stroke="#303030" stroke-width="3"/>
<line x1="1.5" y1="117" x2="1.5" y2="124" stroke="#303030" stroke-width="3"/>
<line x1="1.5" y1="132" x2="1.5" y2="139" stroke="#303030" stroke-width="3"/>
<line x1="1.5" y1="145" x2="1.5" y2="152" stroke="#303030" stroke-width="3"/>
<line x1="1.5" y1="158" x2="1.5" y2="165" stroke="#303030" stroke-width="3"/>
<line x1="13" y1="57.5" x2="20" y2="57.5" stroke="#303030" stroke-width="3"/>
<line x1="120" y1="57.5" x2="127" y2="57.5" stroke="#303030" stroke-width="3"/>
<line x1="133" y1="57.5" x2="140" y2="57.5" stroke="#303030" stroke-width="3"/>
<line x1="146" y1="57.5" x2="153" y2="57.5" stroke="#303030" stroke-width="3"/>
<line x1="160" y1="57.5" x2="167" y2="57.5" stroke="#303030" stroke-width="3"/>
<line x1="173" y1="57.5" x2="180" y2="57.5" stroke="#303030" stroke-width="3"/>
<line x1="186" y1="57.5" x2="193" y2="57.5" stroke="#303030" stroke-width="3"/>
<line x1="200" y1="57.5" x2="207" y2="57.5" stroke="#303030" stroke-width="3"/>
<line x1="213" y1="57.5" x2="220" y2="57.5" stroke="#303030" stroke-width="3"/>
<line x1="226" y1="57.5" x2="233" y2="57.5" stroke="#303030" stroke-width="3"/>
<line x1="240" y1="57.5" x2="247" y2="57.5" stroke="#303030" stroke-width="3"/>
<line x1="253" y1="57.5" x2="260" y2="57.5" stroke="#303030" stroke-width="3"/>
<line x1="266" y1="57.5" x2="273" y2="57.5" stroke="#303030" stroke-width="3"/>
<line x1="296.396" y1="1.55324" x2="303.148" y2="3.40163" stroke="#303030" stroke-width="3"/>
<line x1="308.935" y1="4.98634" x2="315.687" y2="6.83474" stroke="#303030" stroke-width="3"/>
<line x1="322.437" y1="8.68263" x2="329.189" y2="10.531" stroke="#303030" stroke-width="3"/>
<line x1="334.978" y1="12.1157" x2="341.73" y2="13.9641" stroke="#303030" stroke-width="3"/>
<line x1="347.515" y1="15.5484" x2="354.267" y2="17.3967" stroke="#303030" stroke-width="3"/>
<line x1="361.396" y1="19.5532" x2="368.148" y2="21.4016" stroke="#303030" stroke-width="3"/>
<line x1="373.935" y1="22.9863" x2="380.687" y2="24.8347" stroke="#303030" stroke-width="3"/>
<line x1="387.437" y1="26.6826" x2="394.189" y2="28.531" stroke="#303030" stroke-width="3"/>
<line x1="399.978" y1="30.1157" x2="406.73" y2="31.9641" stroke="#303030" stroke-width="3"/>
<line x1="412.515" y1="33.5484" x2="419.267" y2="35.3968" stroke="#303030" stroke-width="3"/>
<line x1="426.396" y1="37.5532" x2="433.148" y2="39.4016" stroke="#303030" stroke-width="3"/>
<line x1="438.935" y1="40.9863" x2="445.687" y2="42.8347" stroke="#303030" stroke-width="3"/>
<line x1="452.437" y1="44.6826" x2="459.189" y2="46.531" stroke="#303030" stroke-width="3"/>
<line x1="464.978" y1="48.1157" x2="471.73" y2="49.9641" stroke="#303030" stroke-width="3"/>
<line x1="477.515" y1="51.5484" x2="484.267" y2="53.3968" stroke="#303030" stroke-width="3"/>
<line x1="491.396" y1="55.5532" x2="498.148" y2="57.4016" stroke="#303030" stroke-width="3"/>
<line x1="503.935" y1="58.9863" x2="510.687" y2="60.8347" stroke="#303030" stroke-width="3"/>
<line x1="517.437" y1="62.6826" x2="524.189" y2="64.531" stroke="#303030" stroke-width="3"/>
<line x1="529.978" y1="66.1157" x2="536.73" y2="67.9641" stroke="#303030" stroke-width="3"/>
<line x1="542.515" y1="69.5484" x2="549.267" y2="71.3968" stroke="#303030" stroke-width="3"/>
<line x1="556.396" y1="73.5532" x2="563.148" y2="75.4016" stroke="#303030" stroke-width="3"/>
<line x1="568.935" y1="76.9863" x2="575.687" y2="78.8347" stroke="#303030" stroke-width="3"/>
<line x1="582.437" y1="80.6826" x2="589.189" y2="82.531" stroke="#303030" stroke-width="3"/>
<line x1="594.978" y1="84.1157" x2="601.73" y2="85.9641" stroke="#303030" stroke-width="3"/>
<line x1="607.515" y1="87.5484" x2="614.267" y2="89.3968" stroke="#303030" stroke-width="3"/>
<line x1="621.396" y1="91.5532" x2="628.148" y2="93.4016" stroke="#303030" stroke-width="3"/>
<line x1="633.935" y1="94.9863" x2="640.687" y2="96.8347" stroke="#303030" stroke-width="3"/>
<line x1="647.437" y1="98.6826" x2="654.189" y2="100.531" stroke="#303030" stroke-width="3"/>
<line x1="659.978" y1="102.116" x2="666.73" y2="103.964" stroke="#303030" stroke-width="3"/>
<line x1="672.515" y1="105.548" x2="679.267" y2="107.397" stroke="#303030" stroke-width="3"/>
<line x1="686.396" y1="109.553" x2="693.148" y2="111.402" stroke="#303030" stroke-width="3"/>
<line x1="698.935" y1="112.986" x2="705.687" y2="114.835" stroke="#303030" stroke-width="3"/>
<line x1="710.62" y1="116.917" x2="717.391" y2="115.142" stroke="#303030" stroke-width="3"/>
<line x1="723.198" y1="113.62" x2="729.969" y2="111.845" stroke="#303030" stroke-width="3"/>
<line x1="735.772" y1="110.324" x2="742.543" y2="108.549" stroke="#303030" stroke-width="3"/>
<line x1="749.62" y1="106.917" x2="756.391" y2="105.142" stroke="#303030" stroke-width="3"/>
<line x1="762.198" y1="103.62" x2="768.969" y2="101.845" stroke="#303030" stroke-width="3"/>
<line x1="774.772" y1="100.324" x2="781.543" y2="98.5489" stroke="#303030" stroke-width="3"/>
<line x1="788.62" y1="96.9172" x2="795.391" y2="95.1422" stroke="#303030" stroke-width="3"/>
<line x1="801.198" y1="93.6198" x2="807.969" y2="91.8448" stroke="#303030" stroke-width="3"/>
<line x1="813.772" y1="90.3239" x2="820.543" y2="88.5489" stroke="#303030" stroke-width="3"/>
<line x1="827.62" y1="86.9172" x2="834.391" y2="85.1422" stroke="#303030" stroke-width="3"/>
<line x1="840.198" y1="83.6198" x2="846.969" y2="81.8448" stroke="#303030" stroke-width="3"/>
<line x1="852.772" y1="80.3239" x2="859.543" y2="78.5489" stroke="#303030" stroke-width="3"/>
<line x1="866.62" y1="76.9172" x2="873.391" y2="75.1422" stroke="#303030" stroke-width="3"/>
<line x1="879.198" y1="73.6198" x2="885.969" y2="71.8448" stroke="#303030" stroke-width="3"/>
<line x1="891.772" y1="70.3239" x2="898.543" y2="68.5489" stroke="#303030" stroke-width="3"/>
<line x1="905.62" y1="66.9172" x2="912.391" y2="65.1422" stroke="#303030" stroke-width="3"/>
<line x1="918.198" y1="63.6198" x2="924.969" y2="61.8448" stroke="#303030" stroke-width="3"/>
<line x1="930.772" y1="60.3239" x2="937.543" y2="58.5489" stroke="#303030" stroke-width="3"/>
<line x1="944.62" y1="56.9172" x2="951.391" y2="55.1422" stroke="#303030" stroke-width="3"/>
<line x1="957.198" y1="53.6198" x2="963.969" y2="51.8448" stroke="#303030" stroke-width="3"/>
<line x1="969.772" y1="50.3239" x2="976.543" y2="48.5489" stroke="#303030" stroke-width="3"/>
<line x1="983.62" y1="46.9172" x2="990.391" y2="45.1422" stroke="#303030" stroke-width="3"/>
<line x1="996.198" y1="43.6198" x2="1002.97" y2="41.8448" stroke="#303030" stroke-width="3"/>
<line x1="1008.77" y1="40.3239" x2="1015.54" y2="38.5489" stroke="#303030" stroke-width="3"/>
<line x1="1022.62" y1="36.9172" x2="1029.39" y2="35.1422" stroke="#303030" stroke-width="3"/>
<line x1="1035.62" y1="32.6198" x2="1042.39" y2="30.8448" stroke="#303030" stroke-width="3"/>
<line x1="1048.19" y1="29.3239" x2="1054.97" y2="27.5489" stroke="#303030" stroke-width="3"/>
<line x1="275.604" y1="51.9667" x2="278.163" y2="45.4514" stroke="#303030" stroke-width="3"/>
<line x1="280.604" y1="39.9667" x2="283.163" y2="33.4514" stroke="#303030" stroke-width="3"/>
<line x1="285.604" y1="27.9667" x2="288.163" y2="21.4514" stroke="#303030" stroke-width="3"/>
<line x1="290.604" y1="15.9667" x2="293.163" y2="9.45138" stroke="#303030" stroke-width="3"/>
</svg>
